<?xml version="1.0" encoding="UTF-8"?>
<!DOCTYPE svg PUBLIC "-//W3C//DTD SVG 1.1//EN" "http://www.w3.org/Graphics/SVG/1.1/DTD/svg11.dtd">
<svg xmlns="http://www.w3.org/2000/svg" version="1.1" width="225px" height="225px" style="shape-rendering:geometricPrecision; text-rendering:geometricPrecision; image-rendering:optimizeQuality; fill-rule:evenodd; clip-rule:evenodd" xmlns:xlink="http://www.w3.org/1999/xlink">
<g><path style="opacity:0.963" d="M 224.5,44.5 C 224.5,48.5 224.5,52.5 224.5,56.5C 219.495,74.1623 207.829,84.4957 189.5,87.5C 188.285,116.098 177.619,140.598 157.5,161C 164.378,164.022 171.211,167.188 178,170.5C 179.165,174.684 177.665,177.517 173.5,179C 162.2,181.31 151.033,180.81 140,177.5C 119.565,192.458 96.7318,197.625 71.5,193C 41.3731,185.853 19.5397,168.353 6,140.5C 3.08613,133.6 0.919461,126.6 -0.5,119.5C -0.5,110.833 -0.5,102.167 -0.5,93.5C 11.2593,51.9391 38.5927,34.6058 81.5,41.5C 89.6125,38.2961 97.9458,35.7961 106.5,34C 110.594,33.2327 114.594,33.566 118.5,35C 119.428,35.3879 120.095,36.0546 120.5,37C 116.044,39.4574 113.044,43.124 111.5,48C 112.329,49.8161 113.163,51.6494 114,53.5C 127.357,62.8487 139.523,73.682 150.5,86C 154.145,88.8084 158.145,90.9751 162.5,92.5C 163.442,92.3918 164.275,92.0585 165,91.5C 165.834,88.8276 166.668,86.161 167.5,83.5C 149.162,69.8237 144.496,52.4904 153.5,31.5C 155.074,30.3691 156.741,30.2025 158.5,31C 159.878,36.1482 162.545,40.4815 166.5,44C 174.877,46.2106 180.543,51.3773 183.5,59.5C 187.053,56.5562 191.053,54.3896 195.5,53C 204.935,54.3032 212.602,51.3032 218.5,44C 220.598,43.3224 222.598,43.4891 224.5,44.5 Z M 19.5,89.5 C 48.6615,88.998 72.4948,99.998 91,122.5C 99.6667,134.5 108.333,146.5 117,158.5C 122.239,164.41 128.072,169.577 134.5,174C 127.664,174.961 120.997,174.295 114.5,172C 104.893,166.058 95.5597,159.725 86.5,153C 71.6243,145.209 68.1243,148.709 76,163.5C 76.7203,165.112 76.5536,166.612 75.5,168C 70.8503,169.909 66.1836,169.909 61.5,168C 33.45,153.283 18.1167,129.95 15.5,98C 15.6667,95.8333 15.8333,93.6667 16,91.5C 17.3024,90.9152 18.469,90.2485 19.5,89.5 Z M 120.5,95.5 C 124.769,95.7339 128.769,96.9006 132.5,99C 140.23,105.349 145.396,113.183 148,122.5C 139.583,127.139 133.25,125.139 129,116.5C 131.375,106.862 127.542,101.695 117.5,101C 117.043,100.586 116.709,100.086 116.5,99.5C 117.549,97.7844 118.882,96.4511 120.5,95.5 Z M 118.5,107.5 C 119.833,107.5 121.167,107.5 122.5,107.5C 122.5,108.833 122.5,110.167 122.5,111.5C 121.167,111.5 119.833,111.5 118.5,111.5C 118.5,110.167 118.5,108.833 118.5,107.5 Z"/></g>
</svg>
